<svg id="Layer_1" data-name="Layer 1" xmlns="http://www.w3.org/2000/svg" viewBox="0 0 169.05 65.68"><defs><style>.cls-1{fill:#b3b3b3;}.cls-2{fill:#1e3a8a;}.cls-3{fill:none;stroke:#1e3a8a;stroke-miterlimit:10;stroke-width:7px;}</style></defs><polygon class="cls-1" points="142.65 25.33 136.42 28.26 82.6 2.93 88.83 0 142.65 25.33"/><polygon class="cls-1" points="40.33 28.55 34.1 25.62 87.92 0.29 94.15 3.23 40.33 28.55"/><rect class="cls-2" x="87.28" y="41" width="8.85" height="8.85"/><rect class="cls-2" x="97.45" y="41" width="8.85" height="8.85"/><rect class="cls-2" x="87.28" y="31.31" width="8.85" height="8.85"/><rect class="cls-2" x="97.45" y="31.31" width="8.85" height="8.85"/><text x="-169.06" y="-81.5"/><text x="-169.06" y="-81.5"/><circle class="cls-3" cx="96.79" cy="40.58" r="21.6"/><path class="cls-2" d="M169.06,128.06a9.39,9.39,0,0,1,2.56-6.64l2.79,3.24a5.81,5.81,0,0,0-1,3.4c0,2.72,1.6,4.45,4,4.45h5.71c3,0,3.84-.83,3.94-4.29V113.79h4.36v14.43c-.1,6.57-1.54,8.46-7.24,8.62v0h-6.77C172.55,136.87,169.06,133.18,169.06,128.06Zm7.63-1.74a11.08,11.08,0,0,1,1.31-.54,4.11,4.11,0,0,1-.16-1.09,2.91,2.91,0,0,1,3.11-3.17,5.82,5.82,0,0,1,1.86.41l-.68,2a3.12,3.12,0,0,0-1.18-.38,1,1,0,0,0-1,1.09,1.86,1.86,0,0,0,.29.93H183v2.11h-4a11.25,11.25,0,0,0-1.21.36Z" transform="translate(-169.06 -81.5)"/><path class="cls-2" d="M190.22,143.41l1.48-3.72a3.94,3.94,0,0,0,1.83.35c1.57,0,2.56-1.44,2.56-3.81V121.52h4.36V136c0,5.09-2.57,8.17-6.86,8.17A8.4,8.4,0,0,1,190.22,143.41Z" transform="translate(-169.06 -81.5)"/><path class="cls-2" d="M204.72,113.83H209v18.71h2.63v4.36h-6.95Z" transform="translate(-169.06 -81.5)"/><path class="cls-2" d="M211.52,132.54h.54c3.05,0,3.85-.83,3.94-4.29v-5h4.36v5a21.55,21.55,0,0,1-.42,4.29h.58c3,0,3.85-.83,3.94-4.29v-5h4.36v5a22.42,22.42,0,0,1-.41,4.29h.51c3,0,3.84-.83,3.94-4.29v-6.73h4.36v6.73c0,.86-.06,1.66-.13,2.37.1,1.7.42,1.92,2,1.92h1.18v4.36h-1.18c-2.12,0-3.56-.29-4.52-1-1.28.73-3.08,1-5.64,1h-1.86l-.55-1.22c-1.25.9-3.17,1.22-6,1.22h-1.86l-.54-1.25c-1.28.93-3.21,1.25-6.06,1.25h-.54Z" transform="translate(-169.06 -81.5)"/><path class="cls-2" d="M240.12,132.54h5.29v4.36h-5.29Z" transform="translate(-169.06 -81.5)"/><path class="cls-2" d="M285.06,130.75h9.1v7.5h-9.1Z" transform="translate(-169.06 -81.5)"/><path class="cls-2" d="M293.88,130.75h.94c5.24,0,6.62-1.43,6.79-7.39v-8.55h7.49v8.55a37.71,37.71,0,0,1-.71,7.39h1c5.24,0,6.62-1.43,6.78-7.39v-8.55h7.5v8.55a37.71,37.71,0,0,1-.71,7.39h.88c5.24,0,6.62-1.43,6.78-7.39V111.78h7.5v11.58c-.16,12-3,14.89-14.28,14.89h-3.2l-.94-2.09c-2.15,1.54-5.46,2.09-10.31,2.09h-3.2l-.93-2.15c-2.21,1.6-5.52,2.15-10.43,2.15h-.94Z" transform="translate(-169.06 -81.5)"/><polygon class="cls-2" points="150.64 25.82 144.41 28.75 90.59 3.43 96.82 0.5 150.64 25.82"/><polygon class="cls-2" points="48.32 29.05 42.09 26.12 95.92 0.79 102.14 3.72 48.32 29.05"/></svg>